<svg viewBox="0 0 146 24" width="146" height="24" xmlns="http://www.w3.org/2000/svg" xmlns:xlink="http://www.w3.org/1999/xlink"><defs><path id="a" d="M0 0h145.941v23.751H0z"/></defs><g fill="none" fill-rule="evenodd"><mask id="b" fill="#fff"><use xlink:href="#a"/></mask><path d="M9.571 4.514h5.058v-3.12H0v3.12h5.01v13.424h4.561V4.514zM22.987 8.65V5.365s-1.087-.047-1.513-.047c-4.111 0-6.853.803-6.853.803v11.817h4.42V8.863s1.063-.308 2.386-.308c.757 0 1.56.095 1.56.095zm8.768 14.889L39.011 5.53h-4.798l-2.529 8.532h-.141L28.636 5.53h-4.94l5.72 12.408-2.151 5.6h4.49zm7.579-13.542c0 1.158.543 2.718 2.34 3.71-.733.497-2.435 1.678-2.435 3.333 0 1.418.638 2.198 1.583 2.647 1.253.614 3.05.59 4.373.614.803.024 3.308-.26 3.308.993 0 .496-.141.85-.307 1.229l-.52 1.229h4.089l.78-1.75c.283-.661.52-1.3.52-2.126 0-.851-.355-1.442-.875-1.82-.969-.686-2.505-.757-3.592-.78l-2.765-.047c-1.56-.024-2.27-.331-2.27-1.135 0-.898.946-1.536.946-1.536s1.04.118 1.938.118c5.507 0 6.452-2.883 6.452-4.68 0-.59-.19-1.157-.378-1.511h2.269V5.53l-6.24.048s-1.016-.284-2.434-.284c-5.79 0-6.782 2.86-6.782 4.703zm9.358 0c0 1.536-.732 2.481-2.576 2.481-1.82 0-2.552-.945-2.552-2.481s.732-2.482 2.552-2.482c1.844 0 2.576.946 2.576 2.482zm12.73-5.483h8.32v-3.12H56.884v16.544h4.538v-5.932h5.979V8.933h-5.98V4.514zm21.947 7.208c0-4.821-2.86-6.57-6.995-6.57-4.136 0-7.113 1.749-7.113 6.57 0 4.632 3.308 6.594 7.113 6.594 3.805 0 6.995-1.962 6.995-6.594zm-4.443 0c0 2.033-.094 4.018-2.552 4.018s-2.67-1.985-2.67-4.018c0-2.009.212-3.994 2.67-3.994 2.458 0 2.552 1.985 2.552 3.994zm15.354 6.216h4.42V9.5c0-3.498-2.411-4.183-6.121-4.183-2.317 0-6.83.614-6.83.614v12.006h4.419V8.46s1.158-.166 1.985-.166c1.11 0 2.127.213 2.127 1.82v7.823zm20.647-.047V0h-4.42v5.506a22.666 22.666 0 00-2.859-.19c-1.229 0-2.387.142-3.237.52-2.364 1.017-3.475 3.545-3.475 6.027 0 2.505 1.158 4.821 3.522 5.837 1.323.591 2.978.568 4.395.568 2.34 0 5.696-.355 6.074-.378zm-4.395-9.761v7.35c-.686.094-1.395.142-2.08.118-2.222-.047-2.836-2.032-2.836-3.687 0-2.245.78-3.923 3.096-3.923.85 0 1.82.142 1.82.142zm11.312 4.821h9.004c.165-5.2-1.465-7.775-6.617-7.775-4.467 0-6.878 2.481-6.878 6.475 0 4.963 3.309 6.618 7.728 6.618 2.529 0 4.656-.45 4.656-.45v-2.505s-2.009.378-3.947.378c-1.843 0-3.946-.59-3.946-2.74zm4.726-2.34h-4.75c.07-1.583.378-2.977 2.387-2.977s2.316 1.394 2.363 2.977zm14.952 7.327h4.42V9.5c0-3.498-2.411-4.183-6.122-4.183-2.315 0-6.83.614-6.83.614v12.006h4.42V8.46s1.158-.166 1.985-.166c1.11 0 2.127.213 2.127 1.82v7.823z" fill="#DE0000" mask="url(#b)"/></g></svg>